<mxfile host="app.diagrams.net" agent="Mozilla/5.0 (Windows NT 10.0; Win64; x64) AppleWebKit/537.36 (KHTML, like Gecko) Chrome/131.0.0.0 Safari/537.36 OPR/116.0.0.0" version="26.0.14">
  <diagram name="PÃ¡gina-1" id="-uUMr2G1sATmr3uWk33-">
    <mxGraphModel dx="1008" dy="537" grid="1" gridSize="10" guides="1" tooltips="1" connect="1" arrows="1" fold="1" page="1" pageScale="1" pageWidth="827" pageHeight="1169" math="0" shadow="0">
      <root>
        <mxCell id="0" />
        <mxCell id="1" parent="0" />
        <mxCell id="MvSLCjWyOc8ZC4i4dfrs-9" value="Estudiante" style="swimlane;fontStyle=1;align=center;verticalAlign=top;childLayout=stackLayout;horizontal=1;startSize=26;horizontalStack=0;resizeParent=1;resizeParentMax=0;resizeLast=0;collapsible=1;marginBottom=0;whiteSpace=wrap;html=1;" vertex="1" parent="1">
          <mxGeometry x="300" y="500" width="160" height="222" as="geometry" />
        </mxCell>
        <mxCell id="MvSLCjWyOc8ZC4i4dfrs-10" value="-nombre: String&lt;div&gt;-edad: int&lt;/div&gt;&lt;div&gt;-id: String&lt;/div&gt;&lt;div&gt;-alegrias: String&lt;/div&gt;&lt;div&gt;-nombreAcudiente: String&lt;/div&gt;&lt;div&gt;-contactoAcudiente: String&lt;/div&gt;" style="text;strokeColor=none;fillColor=none;align=left;verticalAlign=top;spacingLeft=4;spacingRight=4;overflow=hidden;rotatable=0;points=[[0,0.5],[1,0.5]];portConstraint=eastwest;whiteSpace=wrap;html=1;" vertex="1" parent="MvSLCjWyOc8ZC4i4dfrs-9">
          <mxGeometry y="26" width="160" height="104" as="geometry" />
        </mxCell>
        <mxCell id="MvSLCjWyOc8ZC4i4dfrs-11" value="" style="line;strokeWidth=1;fillColor=none;align=left;verticalAlign=middle;spacingTop=-1;spacingLeft=3;spacingRight=3;rotatable=0;labelPosition=right;points=[];portConstraint=eastwest;strokeColor=inherit;" vertex="1" parent="MvSLCjWyOc8ZC4i4dfrs-9">
          <mxGeometry y="130" width="160" height="10" as="geometry" />
        </mxCell>
        <mxCell id="MvSLCjWyOc8ZC4i4dfrs-12" value="+constructor()&lt;div&gt;+getNombre()&lt;/div&gt;&lt;div&gt;+setNombre()&lt;/div&gt;&lt;div&gt;+getEdad&lt;span style=&quot;background-color: transparent; color: light-dark(rgb(0, 0, 0), rgb(255, 255, 255));&quot;&gt;()&lt;/span&gt;&lt;/div&gt;&lt;div&gt;+setEdad&lt;span style=&quot;background-color: transparent; color: light-dark(rgb(0, 0, 0), rgb(255, 255, 255));&quot;&gt;()&lt;/span&gt;&lt;/div&gt;" style="text;strokeColor=none;fillColor=none;align=left;verticalAlign=top;spacingLeft=4;spacingRight=4;overflow=hidden;rotatable=0;points=[[0,0.5],[1,0.5]];portConstraint=eastwest;whiteSpace=wrap;html=1;" vertex="1" parent="MvSLCjWyOc8ZC4i4dfrs-9">
          <mxGeometry y="140" width="160" height="82" as="geometry" />
        </mxCell>
        <mxCell id="MvSLCjWyOc8ZC4i4dfrs-19" value="listEstudiantes" style="text;html=1;align=center;verticalAlign=middle;resizable=0;points=[];autosize=1;strokeColor=none;fillColor=none;" vertex="1" parent="1">
          <mxGeometry x="370" y="470" width="100" height="30" as="geometry" />
        </mxCell>
        <mxCell id="MvSLCjWyOc8ZC4i4dfrs-20" value="*" style="text;html=1;align=center;verticalAlign=middle;resizable=0;points=[];autosize=1;strokeColor=none;fillColor=none;" vertex="1" parent="1">
          <mxGeometry x="350" y="480" width="30" height="30" as="geometry" />
        </mxCell>
        <mxCell id="MvSLCjWyOc8ZC4i4dfrs-24" value="Guarderia" style="swimlane;fontStyle=1;align=center;verticalAlign=top;childLayout=stackLayout;horizontal=1;startSize=26;horizontalStack=0;resizeParent=1;resizeParentMax=0;resizeLast=0;collapsible=1;marginBottom=0;whiteSpace=wrap;html=1;" vertex="1" parent="1">
          <mxGeometry x="300" y="160" width="160" height="240" as="geometry" />
        </mxCell>
        <mxCell id="MvSLCjWyOc8ZC4i4dfrs-25" value="-nombre:String&lt;div&gt;-nit:String&lt;/div&gt;" style="text;strokeColor=none;fillColor=none;align=left;verticalAlign=top;spacingLeft=4;spacingRight=4;overflow=hidden;rotatable=0;points=[[0,0.5],[1,0.5]];portConstraint=eastwest;whiteSpace=wrap;html=1;" vertex="1" parent="MvSLCjWyOc8ZC4i4dfrs-24">
          <mxGeometry y="26" width="160" height="64" as="geometry" />
        </mxCell>
        <mxCell id="MvSLCjWyOc8ZC4i4dfrs-26" value="" style="line;strokeWidth=1;fillColor=none;align=left;verticalAlign=middle;spacingTop=-1;spacingLeft=3;spacingRight=3;rotatable=0;labelPosition=right;points=[];portConstraint=eastwest;strokeColor=inherit;" vertex="1" parent="MvSLCjWyOc8ZC4i4dfrs-24">
          <mxGeometry y="90" width="160" height="8" as="geometry" />
        </mxCell>
        <mxCell id="MvSLCjWyOc8ZC4i4dfrs-27" value="+agregarEstudiante()&lt;div&gt;+eliminarEstudiante()&lt;/div&gt;&lt;div&gt;+actualizarEstudiante()&lt;/div&gt;&lt;div&gt;+listarEsudiante()&lt;/div&gt;&lt;div&gt;+constructor()&lt;/div&gt;&lt;div&gt;+getters()&lt;/div&gt;&lt;div&gt;+setters()&lt;/div&gt;&lt;div&gt;+listaMayores5()&lt;/div&gt;&lt;div&gt;&lt;br&gt;&lt;/div&gt;" style="text;strokeColor=none;fillColor=none;align=left;verticalAlign=top;spacingLeft=4;spacingRight=4;overflow=hidden;rotatable=0;points=[[0,0.5],[1,0.5]];portConstraint=eastwest;whiteSpace=wrap;html=1;" vertex="1" parent="MvSLCjWyOc8ZC4i4dfrs-24">
          <mxGeometry y="98" width="160" height="142" as="geometry" />
        </mxCell>
        <mxCell id="MvSLCjWyOc8ZC4i4dfrs-28" value="" style="endArrow=diamondThin;endFill=1;endSize=24;html=1;rounded=0;entryX=0.503;entryY=1.01;entryDx=0;entryDy=0;entryPerimeter=0;exitX=0.5;exitY=0;exitDx=0;exitDy=0;" edge="1" parent="1" target="MvSLCjWyOc8ZC4i4dfrs-27">
          <mxGeometry width="160" relative="1" as="geometry">
            <mxPoint x="380" y="500" as="sourcePoint" />
            <mxPoint x="490" y="520" as="targetPoint" />
          </mxGeometry>
        </mxCell>
      </root>
    </mxGraphModel>
  </diagram>
</mxfile>
